<?xml version="1.0" encoding="utf-8"?>
<!-- Generator: Adobe Illustrator 23.0.0, SVG Export Plug-In . SVG Version: 6.00 Build 0)  -->
<svg version="1.1" id="레이어_1" xmlns="http://www.w3.org/2000/svg" xmlns:xlink="http://www.w3.org/1999/xlink" x="0px"
	 y="0px" viewBox="0 0 200 200" style="enable-background:new 0 0 200 200;" xml:space="preserve">
<style type="text/css">
	.st0{fill:#CCE1FF;}
	.st1{fill:#3390FF;}
</style>
<path class="st0" d="M184.9,59.3c0.3,0.5,0,1.2-0.5,1.2L162,75.3c-0.3,0.2-0.8,0-1-0.2l-3.1-3.6h-54.8c0,0-0.3,0-0.5-0.2
	c-0.3-0.5-0.3-1,0-1.2L115,59.3l1-0.2h68.4C184.6,59,184.9,59.3,184.9,59.3z M157.1,124.9c1.8,0,3.3-0.2,5.1-0.7c0.8,0,1,0.2,1,0.2
	c-0.3,2.1-4.9,8.8-25.2,8.8c-13.4,0-30.1-12.4-34.5-25.1c-1.8-3.8-2.6-8.1-2.6-12.4c0-5.7,0.8-11.5,2.8-16.9c0-0.2,0.5-0.5,0.8-0.5
	h23.1c0.3,0,0.5,0,0.8,0.2c0.3,0.2,0.3,0.5,0.3,0.7c-0.8,4.5-1.3,9.6-1.3,14.1c0.3,1.9,0.3,3.8,0.5,5.5
	C129.1,113.5,142,124.4,157.1,124.9z M98,59c0.3,0,0.5,0.2,0.8,0.5c0,0.5,0,0.7-0.3,1L82.3,76.9c0,0.2-0.3,0.2-0.5,0.2
	c-0.3,0-0.3,0-0.5-0.2l-6.2-5.2H28.8c-0.5-0.2-0.8-0.5-0.8-1.2v-1.9c-0.3-2.9,0.8-6,3.1-7.9c2.1-1.2,4.6-1.9,6.9-1.7H98z M61.2,79.1
	c0,0,32.7,38.2,35.2,42c1,1.4,1.5,2.9,1.5,4.5c0,3.8-2.8,8.4-7.2,8.4H16.7c-0.3,0-0.3,0-0.5-0.2c-0.3-0.5-0.3-1,0-1.2l20.1-17.2
	c0.3-0.2,0.5-0.2,0.8-0.2c0.3,0,0.3,0,0.5,0.2c0.8,1,1.5,1.7,2.6,2.4c2.3,1.7,5.4,2.4,8.5,2.4h21.1l0.3-0.2v-0.2
	c-1-1-36.8-39.6-36.8-39.6c-0.3-0.2-0.3-0.2-0.3-0.5c0-0.2,0.3-0.7,0.8-0.7h26.7L61.2,79.1z"/>
<path class="st1" d="M109,62.8V65l-0.3-24.6c0-0.2,0.3-0.5,0.5-0.7l26.6-9.9h0.5l27.9,5c0.5,0.2,0.8,0.5,0.8,0.9
	c0,0.2-0.3,0.7-0.5,0.7c-3.2,1.2-6.2,2.6-9.5,4.3c-5,2.6-14.4,8.3-16.4,11.6c-0.8,1.2-1,2.6-1,4v1.2h-21l-1.7,0.5L109,62.8L109,62.8
	z M130.9,78c-1-0.9-2-0.9-2.5-0.9H109v-3.3h28.6v40.7c-3.8-4.1-6-9.4-6.5-14.9v-0.2c-0.3-0.7-0.3-1.4-0.3-2.4c0-0.7-0.2-1.7-0.2-2.6
	c0-4,0.5-8.5,1.2-13.5v-0.5C131.9,80.1,131.9,78.9,130.9,78z M116.7,128.2c6.7,5.2,14.2,8,20.6,8v4.3c0,0,0,10.9-26.4,27.9
	c-0.3,0.2-2,0.5-2,0v-47.6C111.3,123.4,113.7,126,116.7,128.2z M85.3,77.9l9-9.1v45.4c-8.5-10-25.1-29.4-28.6-33.5V74h9.5l5.2,4.3
	c0.5,0.7,1.2,0.9,2.2,0.9c0.5,0,1.1-0.1,1.6-0.3C84.6,78.7,85,78.3,85.3,77.9L85.3,77.9z M92,136c0.8,0,1.8,0,2.3-0.5v35.2
	c0,0.5-1.5,0.2-2,0c-26.4-18.6-26.6-30.1-26.6-30.1V136H92z M37.5,35.6c-0.3,0-0.5-0.5-0.5-0.5c0-0.5,0.3-1,0.8-1L66.1,29h0.5
	l27.1,10.3c0.3,0,0.5,0.5,0.5,0.7v17.4H64.9v-1.2c0.1-1.5-0.3-2.9-1-4.2c-2-3.4-11.6-9.3-16.7-12C43.9,38.5,40.7,37,37.5,35.6
	L37.5,35.6z"/>
</svg>
