<?xml version="1.0" encoding="utf-8"?>
<!-- Generator: Adobe Illustrator 27.9.0, SVG Export Plug-In . SVG Version: 6.00 Build 0)  -->
<svg version="1.1" id="Layer_2_00000072261714541026773100000004564462356957128580_"
	 xmlns="http://www.w3.org/2000/svg" xmlns:xlink="http://www.w3.org/1999/xlink" x="0px" y="0px" viewBox="0 0 500 500"
	 style="enable-background:new 0 0 500 500;" xml:space="preserve">
<style type="text/css">
	.st0{fill:#66CEEC;}
</style>
<g>
	<path class="st0" d="M399.3,109l-6.8,6.4l-0.5-0.5l6.8-6.4L399.3,109z"/>
	<path class="st0" d="M398.9,113.4l-4.4,4.1l-0.3-0.3l4.4-4.1L398.9,113.4z"/>
	<path class="st0" d="M401.1,116l-4.5,4l-0.3-0.3l4.5-4L401.1,116z"/>
	<path class="st0" d="M403.4,118.5l-4.5,3.9l-0.3-0.4l4.5-3.9L403.4,118.5z"/>
	<path class="st0" d="M406.8,120.5l-5.6,4.7l-0.4-0.4l5.6-4.7L406.8,120.5z"/>
	<path class="st0" d="M407.6,123.7l-4.7,3.8l-0.3-0.4l4.7-3.8L407.6,123.7z"/>
	<path class="st0" d="M409.8,126.4L405,130l-0.3-0.4l4.7-3.7L409.8,126.4z"/>
	<path class="st0" d="M411.8,129.1l-4.8,3.6l-0.3-0.4l4.8-3.6L411.8,129.1z"/>
	<path class="st0" d="M416.9,130.4l-7.6,5.5l-0.4-0.6l7.6-5.5L416.9,130.4z"/>
	<path class="st0" d="M415.9,134.7l-4.9,3.4l-0.3-0.4l4.9-3.4L415.9,134.7z"/>
	<path class="st0" d="M417.8,137.5l-5,3.3l-0.3-0.4l5-3.3L417.8,137.5z"/>
	<path class="st0" d="M419.7,140.4l-5,3.3l-0.3-0.4l5-3.3L419.7,140.4z"/>
	<path class="st0" d="M422.8,142.7l-6.2,3.9l-0.3-0.5l6.2-3.9L422.8,142.7z"/>
	<path class="st0" d="M423.3,146.1l-5.1,3.1l-0.2-0.4l5.1-3.1L423.3,146.1z"/>
	<path class="st0" d="M425,149l-5.2,3l-0.2-0.4l5.2-3L425,149z"/>
	<path class="st0" d="M426.7,152l-5.2,2.9l-0.2-0.4l5.2-2.9L426.7,152z"/>
	<path class="st0" d="M431.5,154l-8.2,4.4l-0.3-0.6l8.2-4.4L431.5,154z"/>
	<path class="st0" d="M429.9,158.1l-5.3,2.7l-0.2-0.4l5.3-2.7L429.9,158.1z"/>
	<path class="st0" d="M431.5,161.2l-5.4,2.6l-0.2-0.4l5.4-2.6L431.5,161.2z"/>
	<path class="st0" d="M432.9,164.3l-5.4,2.6l-0.2-0.4l5.4-2.6L432.9,164.3z"/>
	<path class="st0" d="M435.7,167l-6.7,3l-0.2-0.5l6.7-3L435.7,167z"/>
	<path class="st0" d="M435.7,170.4l-5.5,2.4l-0.2-0.4l5.5-2.4L435.7,170.4z"/>
	<path class="st0" d="M437,173.5l-5.5,2.3l-0.2-0.4l5.5-2.3L437,173.5z"/>
	<path class="st0" d="M438.3,176.7l-5.6,2.2l-0.2-0.4l5.6-2.2L438.3,176.7z"/>
	<path class="st0" d="M442.8,179.3l-8.8,3.2l-0.2-0.7l8.7-3.2L442.8,179.3z"/>
	<path class="st0" d="M440.7,183.2l-5.7,2l-0.2-0.4l5.7-2L440.7,183.2z"/>
	<path class="st0" d="M441.8,186.5l-5.7,1.9L436,188l5.7-1.9L441.8,186.5z"/>
	<path class="st0" d="M442.8,189.7l-5.7,1.8l-0.1-0.4l5.7-1.8L442.8,189.7z"/>
	<path class="st0" d="M445.1,192.8l-7,2.1l-0.2-0.5l7-2.1L445.1,192.8z"/>
	<path class="st0" d="M444.7,196.1l-5.8,1.6l-0.1-0.4l5.8-1.6L444.7,196.1z"/>
	<path class="st0" d="M445.6,199.4l-5.8,1.5l-0.1-0.4l5.8-1.5L445.6,199.4z"/>
	<path class="st0" d="M446.4,202.7l-5.8,1.4l-0.1-0.4l5.8-1.4L446.4,202.7z"/>
	<path class="st0" d="M450.5,206l-9.1,2l-0.2-0.7l9.1-2L450.5,206z"/>
	<path class="st0" d="M447.9,209.5l-5.9,1.2l-0.1-0.5l5.9-1.2L447.9,209.5z"/>
	<path class="st0" d="M448.5,212.9l-5.9,1.1l-0.1-0.5l5.9-1.1L448.5,212.9z"/>
	<path class="st0" d="M449.1,216.2l-5.9,1l-0.1-0.5l5.9-1L449.1,216.2z"/>
	<path class="st0" d="M451,219.6l-7.2,1.1l-0.1-0.6l7.2-1.1L451,219.6z"/>
	<path class="st0" d="M450.1,222.8l-5.9,0.8l-0.1-0.5l5.9-0.8L450.1,222.8z"/>
	<path class="st0" d="M450.6,226.2l-5.9,0.7l-0.1-0.5l5.9-0.7L450.6,226.2z"/>
	<path class="st0" d="M450.9,229.6l-6,0.6v-0.5l6-0.6V229.6z"/>
	<path class="st0" d="M454.6,233.4l-9.3,0.8l-0.1-0.7l9.3-0.8L454.6,233.4z"/>
	<path class="st0" d="M451.5,236.6l-6,0.4v-0.5l6-0.4V236.6z"/>
	<path class="st0" d="M451.7,240l-6,0.3v-0.5l6-0.3V240z"/>
	<path class="st0" d="M451.8,243.4l-6,0.2v-0.5l6-0.2V243.4z"/>
	<path class="st0" d="M453.3,247l-7.3,0.1v-0.6l7.3-0.1V247z"/>
	<path class="st0" d="M451.9,250.1h-6v-0.5h6V250.1z"/>
	<path class="st0" d="M451.9,253.5l-6-0.1v-0.5l6,0.1V253.5z"/>
	<path class="st0" d="M451.8,256.9l-6-0.2v-0.5l6,0.2V256.9z"/>
	<path class="st0" d="M455,261.1l-9.3-0.5v-0.7l9.3,0.5V261.1z"/>
	<path class="st0" d="M451.5,263.8l-6-0.4v-0.5l6,0.4V263.8z"/>
	<path class="st0" d="M451.2,267.3l-6-0.5v-0.5l6,0.5V267.3z"/>
	<path class="st0" d="M450.9,270.7l-6-0.6v-0.5l6,0.6V270.7z"/>
	<path class="st0" d="M451.8,274.4l-7.3-0.9l0.1-0.6l7.3,0.9L451.8,274.4z"/>
	<path class="st0" d="M450.1,277.3l-5.9-0.8l0.1-0.5l5.9,0.8L450.1,277.3z"/>
	<path class="st0" d="M449.6,280.7l-5.9-0.9l0.1-0.5l5.9,0.9L449.6,280.7z"/>
	<path class="st0" d="M449,284.1l-5.9-1l0.1-0.5l5.9,1L449,284.1z"/>
	<path class="st0" d="M451.6,288.7l-9.2-1.7l0.1-0.7l9.2,1.7L451.6,288.7z"/>
	<path class="st0" d="M447.8,290.9l-5.9-1.2l0.1-0.5l5.9,1.2L447.8,290.9z"/>
	<path class="st0" d="M447,294.2l-5.8-1.3l0.1-0.5l5.8,1.3L447,294.2z"/>
	<path class="st0" d="M446.3,297.6l-5.8-1.4l0.1-0.4l5.8,1.4L446.3,297.6z"/>
	<path class="st0" d="M446.7,301.4l-7.1-1.8l0.1-0.5l7.1,1.8L446.7,301.4z"/>
	<path class="st0" d="M444.6,304l-5.8-1.6l0.1-0.4l5.8,1.6L444.6,304z"/>
	<path class="st0" d="M443.6,307.3l-5.7-1.7l0.1-0.4l5.7,1.7L443.6,307.3z"/>
	<path class="st0" d="M442.7,310.6l-5.7-1.8l0.1-0.4l5.7,1.8L442.7,310.6z"/>
	<path class="st0" d="M444.6,315.5l-8.8-3l0.2-0.7l8.8,3L444.6,315.5z"/>
	<path class="st0" d="M440.4,317.2l-5.7-2l0.2-0.4l5.7,2L440.4,317.2z"/>
	<path class="st0" d="M439.3,320.4l-5.6-2.1l0.2-0.4l5.6,2.1L439.3,320.4z"/>
	<path class="st0" d="M438.1,323.6l-5.6-2.2l0.2-0.4l5.6,2.2L438.1,323.6z"/>
	<path class="st0" d="M437.9,327.4l-6.8-2.8l0.2-0.5l6.8,2.8L437.9,327.4z"/>
	<path class="st0" d="M435.5,329.7l-5.5-2.4l0.2-0.4l5.5,2.4L435.5,329.7z"/>
	<path class="st0" d="M434.2,332.9l-5.5-2.4l0.2-0.4l5.5,2.4L434.2,332.9z"/>
	<path class="st0" d="M432.7,336l-5.4-2.6l0.2-0.4l5.4,2.6L432.7,336z"/>
	<path class="st0" d="M433.9,341.1l-8.4-4.1l0.3-0.6l8.4,4.1L433.9,341.1z"/>
	<path class="st0" d="M429.7,342.2l-5.3-2.7l0.2-0.4l5.3,2.7L429.7,342.2z"/>
	<path class="st0" d="M428.1,345.3l-5.3-2.8l0.2-0.4l5.3,2.8L428.1,345.3z"/>
	<path class="st0" d="M426.4,348.2l-5.2-2.9l0.2-0.4l5.2,2.9L426.4,348.2z"/>
	<path class="st0" d="M425.8,352.1l-6.3-3.7l0.3-0.5l6.3,3.7L425.8,352.1z"/>
	<path class="st0" d="M423.1,354l-5.1-3.1l0.2-0.4l5.1,3.1L423.1,354z"/>
	<path class="st0" d="M421.3,356.9l-5.1-3.2l0.2-0.4l5.1,3.2L421.3,356.9z"/>
	<path class="st0" d="M419.4,359.8l-5-3.3l0.3-0.4l5,3.3L419.4,359.8z"/>
	<path class="st0" d="M420,365.1l-7.7-5.2l0.4-0.6l7.7,5.2L420,365.1z"/>
	<path class="st0" d="M415.5,365.6l-4.9-3.4l0.3-0.4l4.9,3.4L415.5,365.6z"/>
	<path class="st0" d="M413.6,368.4l-4.8-3.5l0.3-0.4l4.8,3.5L413.6,368.4z"/>
	<path class="st0" d="M411.5,371.1l-4.8-3.6l0.3-0.4l4.8,3.6L411.5,371.1z"/>
	<path class="st0" d="M410.4,374.8l-5.8-4.5l0.3-0.4l5.8,4.5L410.4,374.8z"/>
	<path class="st0" d="M407.4,376.4l-4.7-3.7l0.3-0.4l4.7,3.7L407.4,376.4z"/>
	<path class="st0" d="M405.3,379l-4.6-3.8l0.3-0.4l4.6,3.8L405.3,379z"/>
	<path class="st0" d="M403,381.6l-4.5-3.9l0.3-0.4l4.5,3.9L403,381.6z"/>
	<path class="st0" d="M402.8,386.9l-6.9-6.2l0.5-0.5l6.9,6.2L402.8,386.9z"/>
	<path class="st0" d="M101.2,108.5l6.8,6.4l-0.5,0.5l-6.8-6.4L101.2,108.5z"/>
	<path class="st0" d="M101.5,113.1l4.4,4.1l-0.3,0.3l-4.4-4.1L101.5,113.1z"/>
	<path class="st0" d="M99.2,115.6l4.5,4l-0.3,0.3l-4.5-4L99.2,115.6z"/>
	<path class="st0" d="M96.9,118.2l4.5,3.9l-0.3,0.4l-4.5-3.9L96.9,118.2z"/>
	<path class="st0" d="M93.6,120l5.6,4.7l-0.4,0.4l-5.6-4.7L93.6,120z"/>
	<path class="st0" d="M92.6,123.3l4.7,3.8l-0.3,0.4l-4.7-3.8L92.6,123.3z"/>
	<path class="st0" d="M90.5,126l4.7,3.7L95,130l-4.7-3.7L90.5,126z"/>
	<path class="st0" d="M88.4,128.7l4.8,3.6l-0.3,0.4l-4.8-3.6L88.4,128.7z"/>
	<path class="st0" d="M83.5,129.8l7.6,5.5l-0.4,0.6l-7.6-5.5L83.5,129.8z"/>
	<path class="st0" d="M84.4,134.3l4.9,3.4l-0.3,0.4l-4.9-3.4L84.4,134.3z"/>
	<path class="st0" d="M82.4,137.1l5,3.3l-0.3,0.4l-5-3.3L82.4,137.1z"/>
	<path class="st0" d="M80.5,140l5,3.3l-0.3,0.4l-5-3.3L80.5,140z"/>
	<path class="st0" d="M77.5,142.3l6.2,3.9l-0.3,0.5l-6.2-3.9L77.5,142.3z"/>
	<path class="st0" d="M77,145.7l5.1,3.1l-0.2,0.4l-5.1-3.1L77,145.7z"/>
	<path class="st0" d="M75.3,148.6l5.2,3l-0.2,0.4l-5.2-3L75.3,148.6z"/>
	<path class="st0" d="M73.6,151.6l5.2,2.9l-0.2,0.4l-5.2-2.9L73.6,151.6z"/>
	<path class="st0" d="M68.8,153.3l8.2,4.4l-0.3,0.6l-8.2-4.4L68.8,153.3z"/>
	<path class="st0" d="M70.3,157.7l5.3,2.7l-0.2,0.4l-5.3-2.7L70.3,157.7z"/>
	<path class="st0" d="M68.7,160.7l5.4,2.6l-0.2,0.4l-5.4-2.6L68.7,160.7z"/>
	<path class="st0" d="M67.3,163.8l5.4,2.6l-0.2,0.4l-5.4-2.6L67.3,163.8z"/>
	<path class="st0" d="M64.6,166.5l6.7,3L71,170l-6.7-3L64.6,166.5z"/>
	<path class="st0" d="M64.5,169.9l5.5,2.4l-0.2,0.4l-5.5-2.4L64.5,169.9z"/>
	<path class="st0" d="M63.2,173.1l5.5,2.3l-0.2,0.4l-5.5-2.3L63.2,173.1z"/>
	<path class="st0" d="M61.9,176.3l5.6,2.2l-0.2,0.4l-5.6-2.2L61.9,176.3z"/>
	<path class="st0" d="M57.4,178.7l8.7,3.2l-0.2,0.7l-8.8-3.2L57.4,178.7z"/>
	<path class="st0" d="M59.5,182.8l5.7,2l-0.2,0.4l-5.7-2L59.5,182.8z"/>
	<path class="st0" d="M58.4,186l5.7,1.9l-0.1,0.4l-5.7-1.9L58.4,186z"/>
	<path class="st0" d="M57.3,189.3l5.7,1.8l-0.1,0.4l-5.7-1.8L57.3,189.3z"/>
	<path class="st0" d="M55,192.3l7,2.1l-0.2,0.5l-7-2.1L55,192.3z"/>
	<path class="st0" d="M55.4,195.7l5.8,1.6l-0.1,0.4l-5.8-1.6L55.4,195.7z"/>
	<path class="st0" d="M54.6,199l5.8,1.5l-0.1,0.4l-5.8-1.5L54.6,199z"/>
	<path class="st0" d="M53.7,202.3l5.8,1.4l-0.1,0.4l-5.8-1.4L53.7,202.3z"/>
	<path class="st0" d="M49.6,205.3l9.1,2l-0.2,0.7l-9.1-2L49.6,205.3z"/>
	<path class="st0" d="M52.2,209.1l5.9,1.2l-0.1,0.5l-5.9-1.2L52.2,209.1z"/>
	<path class="st0" d="M51.5,212.4l5.9,1.1l-0.1,0.5l-5.9-1.1L51.5,212.4z"/>
	<path class="st0" d="M50.9,215.8l5.9,1l-0.1,0.5l-5.9-1L50.9,215.8z"/>
	<path class="st0" d="M49.1,219.1l7.2,1.1l-0.1,0.6l-7.2-1.1L49.1,219.1z"/>
	<path class="st0" d="M49.9,222.4l5.9,0.8l-0.1,0.5l-5.9-0.8L49.9,222.4z"/>
	<path class="st0" d="M49.5,225.8l5.9,0.7l-0.1,0.5l-5.9-0.7L49.5,225.8z"/>
	<path class="st0" d="M49.1,229.2l6,0.6v0.5l-6-0.6V229.2z"/>
	<path class="st0" d="M45.4,232.7l9.3,0.8l-0.1,0.7l-9.3-0.8L45.4,232.7z"/>
	<path class="st0" d="M48.5,236.1l6,0.4v0.5l-6-0.4V236.1z"/>
	<path class="st0" d="M48.3,239.5l6,0.3v0.5l-6-0.3V239.5z"/>
	<path class="st0" d="M48.2,242.9l6,0.2v0.5l-6-0.2V242.9z"/>
	<path class="st0" d="M46.8,246.4l7.3,0.1v0.6l-7.3-0.1V246.4z"/>
	<path class="st0" d="M48.1,249.6h6v0.5h-6V249.6z"/>
	<path class="st0" d="M48.1,253l6-0.1v0.5l-6,0.1V253z"/>
	<path class="st0" d="M48.2,256.4l6-0.2v0.5l-6,0.2V256.4z"/>
	<path class="st0" d="M45,260.4l9.3-0.5v0.7l-9.3,0.5V260.4z"/>
	<path class="st0" d="M48.5,263.4l6-0.4v0.5l-6,0.4V263.4z"/>
	<path class="st0" d="M48.8,266.8l6-0.5v0.5l-6,0.5V266.8z"/>
	<path class="st0" d="M49.1,270.2l6-0.6v0.5l-6,0.6V270.2z"/>
	<path class="st0" d="M48.1,273.9l7.3-0.9l0.1,0.6l-7.3,0.9L48.1,273.9z"/>
	<path class="st0" d="M49.9,276.8l5.9-0.8l0.1,0.5l-5.9,0.8L49.9,276.8z"/>
	<path class="st0" d="M50.3,280.2l5.9-0.9l0.1,0.5l-5.9,0.9L50.3,280.2z"/>
	<path class="st0" d="M50.9,283.6l5.9-1l0.1,0.5l-5.9,1L50.9,283.6z"/>
	<path class="st0" d="M48.3,288l9.2-1.7l0.1,0.7l-9.2,1.7L48.3,288z"/>
	<path class="st0" d="M52.2,290.4l5.9-1.2l0.1,0.5l-5.9,1.2L52.2,290.4z"/>
	<path class="st0" d="M52.9,293.8l5.8-1.3l0.1,0.5l-5.8,1.3L52.9,293.8z"/>
	<path class="st0" d="M53.6,297.1l5.8-1.4l0.1,0.4l-5.8,1.4L53.6,297.1z"/>
	<path class="st0" d="M53.2,300.9l7.1-1.8l0.1,0.5l-7.1,1.8L53.2,300.9z"/>
	<path class="st0" d="M55.3,303.6l5.8-1.6l0.1,0.4l-5.8,1.6L55.3,303.6z"/>
	<path class="st0" d="M56.2,306.9l5.7-1.7l0.1,0.4l-5.7,1.7L56.2,306.9z"/>
	<path class="st0" d="M57.2,310.1l5.7-1.8l0.1,0.4l-5.7,1.8L57.2,310.1z"/>
	<path class="st0" d="M55.2,314.8l8.8-3l0.2,0.7l-8.8,3L55.2,314.8z"/>
	<path class="st0" d="M59.4,316.7l5.7-2l0.2,0.4l-5.7,2L59.4,316.7z"/>
	<path class="st0" d="M60.6,319.9l5.6-2.1l0.2,0.4l-5.6,2.1L60.6,319.9z"/>
	<path class="st0" d="M61.8,323.1l5.6-2.2l0.2,0.4l-5.6,2.2L61.8,323.1z"/>
	<path class="st0" d="M61.8,326.9l6.8-2.8l0.2,0.5l-6.8,2.8L61.8,326.9z"/>
	<path class="st0" d="M64.3,329.3l5.5-2.4l0.2,0.4l-5.5,2.4L64.3,329.3z"/>
	<path class="st0" d="M65.7,332.5l5.5-2.4l0.2,0.4l-5.5,2.4L65.7,332.5z"/>
	<path class="st0" d="M67.1,335.6l5.4-2.6l0.2,0.4l-5.4,2.6L67.1,335.6z"/>
	<path class="st0" d="M65.7,340.5l8.4-4.1l0.3,0.6l-8.4,4.1L65.7,340.5z"/>
	<path class="st0" d="M70.1,341.8l5.3-2.7l0.2,0.4l-5.3,2.7L70.1,341.8z"/>
	<path class="st0" d="M71.7,344.8L77,342l0.2,0.4l-5.3,2.8L71.7,344.8z"/>
	<path class="st0" d="M73.3,347.8l5.2-2.9l0.2,0.4l-5.2,2.9L73.3,347.8z"/>
	<path class="st0" d="M73.9,351.6l6.3-3.7l0.3,0.5l-6.3,3.7L73.9,351.6z"/>
	<path class="st0" d="M76.7,353.6l5.1-3.1l0.2,0.4l-5.1,3.1L76.7,353.6z"/>
	<path class="st0" d="M78.5,356.6l5.1-3.2l0.2,0.4l-5.1,3.2L78.5,356.6z"/>
	<path class="st0" d="M80.3,359.4l5-3.3l0.3,0.4l-5,3.3L80.3,359.4z"/>
	<path class="st0" d="M79.6,364.5l7.7-5.2l0.4,0.6l-7.7,5.2L79.6,364.5z"/>
	<path class="st0" d="M84.2,365.2l4.9-3.4l0.3,0.4l-4.9,3.4L84.2,365.2z"/>
	<path class="st0" d="M86.2,368l4.8-3.5l0.3,0.4l-4.8,3.5L86.2,368z"/>
	<path class="st0" d="M88.2,370.7l4.8-3.6l0.3,0.4l-4.8,3.6L88.2,370.7z"/>
	<path class="st0" d="M89.3,374.4l5.8-4.5l0.3,0.4l-5.8,4.5L89.3,374.4z"/>
	<path class="st0" d="M92.3,376l4.7-3.7l0.3,0.4l-4.7,3.7L92.3,376z"/>
	<path class="st0" d="M94.5,378.7l4.6-3.8l0.3,0.4l-4.6,3.8L94.5,378.7z"/>
	<path class="st0" d="M96.7,381.3l4.5-3.9l0.3,0.4l-4.5,3.9L96.7,381.3z"/>
	<path class="st0" d="M96.7,386.4l6.9-6.2l0.5,0.5l-6.9,6.2L96.7,386.4z"/>
</g>
</svg>
