<?xml version="1.0" encoding="utf-8"?>
<!-- Generator: Adobe Illustrator 27.9.0, SVG Export Plug-In . SVG Version: 6.00 Build 0)  -->
<svg version="1.1" id="Layer_1" xmlns="http://www.w3.org/2000/svg" xmlns:xlink="http://www.w3.org/1999/xlink" x="0px" y="0px"
	 viewBox="0 0 500 500" style="enable-background:new 0 0 500 500;" xml:space="preserve">
<style type="text/css">
	.st0{fill:#66CEEC;}
</style>
<g>
	<path class="st0" d="M300.1,92.7l-0.3-2.2c-0.6-0.2-1.2-0.4-1.9-0.6l0.4,2.2C298.8,92.4,299.4,92.5,300.1,92.7z"/>
	<path class="st0" d="M293.6,90.8l-0.4-2.2c-0.6-0.2-1.3-0.3-1.9-0.5l0.5,2.2C292.3,90.5,293,90.7,293.6,90.8z"/>
	<path class="st0" d="M287,89.2l-0.5-2.2c-0.6-0.1-1.3-0.3-1.9-0.4l0.6,2.2C285.8,88.9,286.4,89,287,89.2z"/>
	<path class="st0" d="M290.3,90l-0.5-2.2c-0.6-0.2-1.2-0.3-1.9-0.5l0.5,2.2C289.1,89.7,289.7,89.8,290.3,90z"/>
	<path class="st0" d="M296.8,91.7l-0.4-2.2c-0.6-0.2-1.2-0.3-1.8-0.5l0.4,2.2C295.6,91.4,296.2,91.6,296.8,91.7z"/>
	<path class="st0" d="M303.3,93.8l-0.3-2.2c-0.6-0.2-1.2-0.4-1.8-0.6l0.3,2.2C302.1,93.4,302.7,93.6,303.3,93.8z"/>
	<path class="st0" d="M283.7,88.4l-0.6-2.2c-0.6-0.1-1.3-0.2-1.9-0.4l0.6,2.2C282.5,88.2,283.1,88.3,283.7,88.4z"/>
	<path class="st0" d="M306.5,94.9l-0.2-2.2c-0.6-0.2-1.2-0.4-1.8-0.6l0.3,2.2C305.3,94.5,305.9,94.7,306.5,94.9z"/>
	<path class="st0" d="M396.6,174.2l1.3-1.8c-0.3-0.6-0.6-1.1-0.9-1.7l-1.3,1.8C396,173.1,396.3,173.6,396.6,174.2z"/>
	<path class="st0" d="M393.4,168.3l1.2-1.9c-0.3-0.6-0.7-1.1-1-1.7l-1.2,1.9C392.7,167.1,393,167.7,393.4,168.3z"/>
	<path class="st0" d="M389.9,162.4l1.2-1.9c-0.3-0.5-0.7-1.1-1-1.6l-1.1,1.9C389.2,161.4,389.6,161.9,389.9,162.4z"/>
	<path class="st0" d="M391.6,165.3l1.2-1.9c-0.3-0.5-0.7-1.1-1-1.6l-1.2,1.9C391,164.3,391.3,164.8,391.6,165.3z"/>
	<path class="st0" d="M395,171.2l1.3-1.8c-0.3-0.6-0.6-1.1-0.9-1.7l-1.2,1.9C394.4,170.1,394.7,170.6,395,171.2z"/>
	<path class="st0" d="M398.1,177.2l1.4-1.8c-0.3-0.6-0.6-1.1-0.9-1.7l-1.3,1.8C397.6,176.1,397.8,176.6,398.1,177.2z"/>
	<path class="st0" d="M388.1,159.6l1.1-1.9c-0.4-0.5-0.7-1.1-1.1-1.6l-1.1,2C387.4,158.5,387.7,159.1,388.1,159.6z"/>
	<path class="st0" d="M399.6,180.3l1.4-1.7c-0.3-0.6-0.5-1.2-0.8-1.7l-1.4,1.8C399,179.1,399.3,179.7,399.6,180.3z"/>
	<path class="st0" d="M407.3,300.1l2.2-0.3c0.2-0.6,0.4-1.2,0.6-1.9l-2.2,0.4C407.6,298.8,407.5,299.4,407.3,300.1z"/>
	<path class="st0" d="M409.2,293.6l2.2-0.4c0.2-0.6,0.3-1.3,0.5-1.9l-2.2,0.5C409.5,292.3,409.3,293,409.2,293.6z"/>
	<path class="st0" d="M410.8,287l2.2-0.5c0.1-0.6,0.3-1.3,0.4-1.9l-2.2,0.6C411.1,285.8,411,286.4,410.8,287z"/>
	<path class="st0" d="M410,290.3l2.2-0.5c0.2-0.6,0.3-1.2,0.5-1.9l-2.2,0.5C410.3,289.1,410.2,289.7,410,290.3z"/>
	<path class="st0" d="M408.3,296.8l2.2-0.4c0.2-0.6,0.3-1.2,0.5-1.8l-2.2,0.4C408.6,295.6,408.4,296.2,408.3,296.8z"/>
	<path class="st0" d="M406.2,303.3l2.2-0.3c0.2-0.6,0.4-1.2,0.6-1.8l-2.2,0.3C406.6,302.1,406.4,302.7,406.2,303.3z"/>
	<path class="st0" d="M411.6,283.7l2.2-0.6c0.1-0.6,0.2-1.3,0.4-1.9l-2.2,0.6C411.8,282.5,411.7,283.1,411.6,283.7z"/>
	<path class="st0" d="M405.1,306.5l2.2-0.2c0.2-0.6,0.4-1.2,0.6-1.8l-2.2,0.3C405.5,305.3,405.3,305.9,405.1,306.5z"/>
	<path class="st0" d="M325.8,396.6l1.8,1.3c0.6-0.3,1.1-0.6,1.7-0.9l-1.8-1.3C326.9,396,326.4,396.3,325.8,396.6z"/>
	<path class="st0" d="M331.7,393.4l1.9,1.2c0.6-0.3,1.1-0.7,1.7-1l-1.9-1.2C332.9,392.7,332.3,393,331.7,393.4z"/>
	<path class="st0" d="M337.6,389.9l1.9,1.2c0.5-0.3,1.1-0.7,1.6-1l-1.9-1.1C338.6,389.2,338.1,389.6,337.6,389.9z"/>
	<path class="st0" d="M334.7,391.6l1.9,1.2c0.5-0.3,1.1-0.7,1.6-1l-1.9-1.2C335.7,391,335.2,391.3,334.7,391.6z"/>
	<path class="st0" d="M328.8,395l1.8,1.3c0.6-0.3,1.1-0.6,1.7-0.9l-1.9-1.2C329.9,394.4,329.4,394.7,328.8,395z"/>
	<path class="st0" d="M322.8,398.1l1.8,1.4c0.6-0.3,1.1-0.6,1.7-0.9l-1.8-1.3C323.9,397.6,323.4,397.8,322.8,398.1z"/>
	<path class="st0" d="M340.4,388.1l1.9,1.1c0.5-0.4,1.1-0.7,1.6-1.1l-2-1.1C341.5,387.4,340.9,387.7,340.4,388.1z"/>
	<path class="st0" d="M319.7,399.6l1.7,1.4c0.6-0.3,1.2-0.5,1.7-0.8l-1.8-1.4C320.9,399,320.3,399.3,319.7,399.6z"/>
	<path class="st0" d="M199.9,407.3l0.3,2.2c0.6,0.2,1.2,0.4,1.9,0.6l-0.4-2.2C201.2,407.6,200.6,407.5,199.9,407.3z"/>
	<path class="st0" d="M206.4,409.2l0.4,2.2c0.6,0.2,1.3,0.3,1.9,0.5l-0.5-2.2C207.7,409.5,207,409.3,206.4,409.2z"/>
	<path class="st0" d="M213,410.8l0.5,2.2c0.6,0.1,1.3,0.3,1.9,0.4l-0.6-2.2C214.2,411.1,213.6,411,213,410.8z"/>
	<path class="st0" d="M209.7,410l0.5,2.2c0.6,0.2,1.2,0.3,1.9,0.5l-0.5-2.2C210.9,410.3,210.3,410.2,209.7,410z"/>
	<path class="st0" d="M203.2,408.3l0.4,2.2c0.6,0.2,1.2,0.3,1.8,0.5l-0.4-2.2C204.4,408.6,203.8,408.4,203.2,408.3z"/>
	<path class="st0" d="M196.7,406.2l0.3,2.2c0.6,0.2,1.2,0.4,1.8,0.6l-0.3-2.2C197.9,406.6,197.3,406.4,196.7,406.2z"/>
	<path class="st0" d="M216.3,411.6l0.6,2.2c0.6,0.1,1.3,0.2,1.9,0.4l-0.6-2.2C217.5,411.8,216.9,411.7,216.3,411.6z"/>
	<path class="st0" d="M193.5,405.1l0.2,2.2c0.6,0.2,1.2,0.4,1.8,0.6l-0.3-2.2C194.7,405.5,194.1,405.3,193.5,405.1z"/>
	<path class="st0" d="M103.4,325.8l-1.3,1.8c0.3,0.6,0.6,1.1,0.9,1.7l1.3-1.8C104,326.9,103.7,326.4,103.4,325.8z"/>
	<path class="st0" d="M106.6,331.7l-1.2,1.9c0.3,0.6,0.7,1.1,1,1.7l1.2-1.9C107.3,332.9,107,332.3,106.6,331.7z"/>
	<path class="st0" d="M110.1,337.6l-1.2,1.9c0.3,0.5,0.7,1.1,1,1.6l1.1-1.9C110.8,338.6,110.4,338.1,110.1,337.6z"/>
	<path class="st0" d="M108.4,334.7l-1.2,1.9c0.3,0.5,0.7,1.1,1,1.6l1.2-1.9C109,335.7,108.7,335.2,108.4,334.7z"/>
	<path class="st0" d="M105,328.8l-1.3,1.8c0.3,0.6,0.6,1.1,0.9,1.7l1.2-1.9C105.6,329.9,105.3,329.4,105,328.8z"/>
	<path class="st0" d="M101.9,322.8l-1.4,1.8c0.3,0.6,0.6,1.1,0.9,1.7l1.3-1.8C102.4,323.9,102.2,323.4,101.9,322.8z"/>
	<path class="st0" d="M111.9,340.4l-1.1,1.9c0.4,0.5,0.7,1.1,1.1,1.6l1.1-2C112.6,341.5,112.3,340.9,111.9,340.4z"/>
	<path class="st0" d="M100.4,319.7l-1.4,1.7c0.3,0.6,0.5,1.2,0.8,1.7l1.4-1.8C101,320.9,100.7,320.3,100.4,319.7z"/>
	<path class="st0" d="M92.7,199.9l-2.2,0.3c-0.2,0.6-0.4,1.2-0.6,1.9l2.2-0.4C92.4,201.2,92.5,200.6,92.7,199.9z"/>
	<path class="st0" d="M90.8,206.4l-2.2,0.4c-0.2,0.6-0.3,1.3-0.5,1.9l2.2-0.5C90.5,207.7,90.7,207,90.8,206.4z"/>
	<path class="st0" d="M89.2,213l-2.2,0.5c-0.1,0.6-0.3,1.3-0.4,1.9l2.2-0.6C88.9,214.2,89,213.6,89.2,213z"/>
	<path class="st0" d="M90,209.7l-2.2,0.5c-0.2,0.6-0.3,1.2-0.5,1.9l2.2-0.5C89.7,210.9,89.8,210.3,90,209.7z"/>
	<path class="st0" d="M91.7,203.2l-2.2,0.4c-0.2,0.6-0.3,1.2-0.5,1.8l2.2-0.4C91.4,204.4,91.6,203.8,91.7,203.2z"/>
	<path class="st0" d="M93.8,196.7l-2.2,0.3c-0.2,0.6-0.4,1.2-0.6,1.8l2.2-0.3C93.4,197.9,93.6,197.3,93.8,196.7z"/>
	<path class="st0" d="M88.4,216.3l-2.2,0.6c-0.1,0.6-0.2,1.3-0.4,1.9l2.2-0.6C88.2,217.5,88.3,216.9,88.4,216.3z"/>
	<path class="st0" d="M94.9,193.5l-2.2,0.2c-0.2,0.6-0.4,1.2-0.6,1.8l2.2-0.3C94.5,194.7,94.7,194.1,94.9,193.5z"/>
	<path class="st0" d="M174.2,103.4l-1.8-1.3c-0.6,0.3-1.1,0.6-1.7,0.9l1.8,1.3C173.1,104,173.6,103.7,174.2,103.4z"/>
	<path class="st0" d="M168.3,106.6l-1.9-1.2c-0.6,0.3-1.1,0.7-1.7,1l1.9,1.2C167.1,107.3,167.7,107,168.3,106.6z"/>
	<path class="st0" d="M162.4,110.1l-1.9-1.2c-0.5,0.3-1.1,0.7-1.6,1l1.9,1.1C161.4,110.8,161.9,110.4,162.4,110.1z"/>
	<path class="st0" d="M165.3,108.4l-1.9-1.2c-0.5,0.3-1.1,0.7-1.6,1l1.9,1.2C164.3,109,164.8,108.7,165.3,108.4z"/>
	<path class="st0" d="M171.2,105l-1.8-1.3c-0.6,0.3-1.1,0.6-1.7,0.9l1.9,1.2C170.1,105.6,170.6,105.3,171.2,105z"/>
	<path class="st0" d="M177.2,101.9l-1.8-1.4c-0.6,0.3-1.1,0.6-1.7,0.9l1.8,1.3C176.1,102.4,176.6,102.2,177.2,101.9z"/>
	<path class="st0" d="M159.6,111.9l-1.9-1.1c-0.5,0.4-1.1,0.7-1.6,1.1l2,1.1C158.5,112.6,159.1,112.3,159.6,111.9z"/>
	<path class="st0" d="M180.3,100.4l-1.7-1.4c-0.6,0.3-1.2,0.5-1.7,0.8l1.8,1.4C179.1,101,179.7,100.7,180.3,100.4z"/>
	<path class="st0" d="M257.6,85.1l-0.9-2.1c-0.6,0-1.3,0-1.9-0.1l0.9,2C256.4,85.1,257,85.1,257.6,85.1z"/>
	<path class="st0" d="M250.9,85l-1-2c-0.7,0-1.3,0-2,0l1,2C249.6,85,250.2,85,250.9,85z"/>
	<path class="st0" d="M244.1,85.1l-1.1-2c-0.6,0-1.3,0.1-1.9,0.1l1.1,1.9C242.9,85.1,243.5,85.1,244.1,85.1z"/>
	<path class="st0" d="M247.5,85l-1-2c-0.6,0-1.3,0-1.9,0l1.1,2C246.2,85,246.9,85,247.5,85z"/>
	<path class="st0" d="M254.3,85l-0.9-2c-0.6,0-1.3,0-1.9,0l1,2C253,85,253.6,85,254.3,85z"/>
	<path class="st0" d="M261,85.3l-0.9-2.1c-0.6,0-1.3-0.1-1.9-0.1l0.9,2.1C259.8,85.3,260.4,85.3,261,85.3z"/>
	<path class="st0" d="M240.7,85.2l-1.1-1.9c-0.6,0-1.3,0.1-1.9,0.1l1.2,1.9C239.5,85.3,240.1,85.3,240.7,85.2z"/>
	<path class="st0" d="M264.4,85.6l-0.8-2.1c-0.6-0.1-1.3-0.1-1.9-0.1l0.9,2.1C263.1,85.5,263.8,85.5,264.4,85.6z"/>
	<path class="st0" d="M372,138.8l0.8-2.1c-0.4-0.5-0.9-0.9-1.3-1.4l-0.8,2.1C371.1,137.9,371.6,138.4,372,138.8z"/>
	<path class="st0" d="M367.3,133.9l0.7-2.1c-0.5-0.5-0.9-0.9-1.4-1.4l-0.7,2.1C366.4,133,366.9,133.5,367.3,133.9z"/>
	<path class="st0" d="M362.5,129.2l0.6-2.1c-0.5-0.4-1-0.9-1.4-1.3l-0.6,2.2C361.5,128.4,362,128.8,362.5,129.2z"/>
	<path class="st0" d="M364.9,131.5l0.7-2.1c-0.5-0.4-0.9-0.9-1.4-1.3l-0.6,2.2C364,130.7,364.5,131.1,364.9,131.5z"/>
	<path class="st0" d="M369.7,136.4l0.8-2.1c-0.4-0.5-0.9-0.9-1.3-1.4l-0.7,2.1C368.8,135.4,369.2,135.9,369.7,136.4z"/>
	<path class="st0" d="M374.2,141.4l0.8-2.1c-0.4-0.5-0.9-1-1.3-1.4l-0.8,2.1C373.4,140.4,373.8,140.9,374.2,141.4z"/>
	<path class="st0" d="M359.9,126.9l0.6-2.2c-0.5-0.4-1-0.8-1.4-1.3l-0.5,2.2C359,126.1,359.5,126.5,359.9,126.9z"/>
	<path class="st0" d="M376.4,143.9l0.9-2c-0.4-0.5-0.8-1-1.3-1.5l-0.9,2.1C375.6,143,376,143.4,376.4,143.9z"/>
	<path class="st0" d="M414.9,257.6l2.1-0.9c0-0.6,0-1.3,0.1-1.9l-2,0.9C414.9,256.4,414.9,257,414.9,257.6z"/>
	<path class="st0" d="M415,250.9l2-1c0-0.7,0-1.3,0-2l-2,1C415,249.6,415,250.2,415,250.9z"/>
	<path class="st0" d="M414.9,244.1l2-1.1c0-0.6-0.1-1.3-0.1-1.9l-1.9,1.1C414.9,242.9,414.9,243.5,414.9,244.1z"/>
	<path class="st0" d="M415,247.5l2-1c0-0.6,0-1.3,0-1.9l-2,1.1C415,246.2,415,246.9,415,247.5z"/>
	<path class="st0" d="M415,254.3l2-0.9c0-0.6,0-1.3,0-1.9l-2,1C415,253,415,253.6,415,254.3z"/>
	<path class="st0" d="M414.7,261l2.1-0.9c0-0.6,0.1-1.3,0.1-1.9l-2.1,0.9C414.7,259.8,414.7,260.4,414.7,261z"/>
	<path class="st0" d="M414.8,240.7l1.9-1.1c0-0.6-0.1-1.3-0.1-1.9l-1.9,1.2C414.7,239.5,414.7,240.1,414.8,240.7z"/>
	<path class="st0" d="M414.4,264.4l2.1-0.8c0.1-0.6,0.1-1.3,0.1-1.9l-2.1,0.9C414.5,263.1,414.5,263.8,414.4,264.4z"/>
	<path class="st0" d="M361.2,372l2.1,0.8c0.5-0.4,0.9-0.9,1.4-1.3l-2.1-0.8C362.1,371.1,361.6,371.6,361.2,372z"/>
	<path class="st0" d="M366.1,367.3l2.1,0.7c0.5-0.5,0.9-0.9,1.4-1.4l-2.1-0.7C367,366.4,366.5,366.9,366.1,367.3z"/>
	<path class="st0" d="M370.8,362.5l2.1,0.6c0.4-0.5,0.9-1,1.3-1.4l-2.2-0.6C371.6,361.5,371.2,362,370.8,362.5z"/>
	<path class="st0" d="M368.5,364.9l2.1,0.7c0.4-0.5,0.9-0.9,1.3-1.4l-2.2-0.6C369.3,364,368.9,364.5,368.5,364.9z"/>
	<path class="st0" d="M363.6,369.7l2.1,0.8c0.5-0.4,0.9-0.9,1.4-1.3l-2.1-0.7C364.6,368.8,364.1,369.2,363.6,369.7z"/>
	<path class="st0" d="M358.6,374.2l2.1,0.8c0.5-0.4,1-0.9,1.4-1.3l-2.1-0.8C359.6,373.4,359.1,373.8,358.6,374.2z"/>
	<path class="st0" d="M373.1,359.9l2.2,0.6c0.4-0.5,0.8-1,1.3-1.4l-2.2-0.5C373.9,359,373.5,359.5,373.1,359.9z"/>
	<path class="st0" d="M356.1,376.4l2,0.9c0.5-0.4,1-0.8,1.5-1.3l-2.1-0.9C357,375.6,356.6,376,356.1,376.4z"/>
	<path class="st0" d="M242.4,414.9l0.9,2.1c0.6,0,1.3,0,1.9,0.1l-0.9-2C243.6,414.9,243,414.9,242.4,414.9z"/>
	<path class="st0" d="M249.1,415l1,2c0.7,0,1.3,0,2,0l-1-2C250.4,415,249.8,415,249.1,415z"/>
	<path class="st0" d="M255.9,414.9l1.1,2c0.6,0,1.3-0.1,1.9-0.1l-1.1-1.9C257.1,414.9,256.5,414.9,255.9,414.9z"/>
	<path class="st0" d="M252.5,415l1,2c0.6,0,1.3,0,1.9,0l-1.1-2C253.8,415,253.1,415,252.5,415z"/>
	<path class="st0" d="M245.7,415l0.9,2c0.6,0,1.3,0,1.9,0l-1-2C247,415,246.4,415,245.7,415z"/>
	<path class="st0" d="M239,414.7l0.9,2.1c0.6,0,1.3,0.1,1.9,0.1l-0.9-2.1C240.2,414.7,239.6,414.7,239,414.7z"/>
	<path class="st0" d="M259.3,414.8l1.1,1.9c0.6,0,1.3-0.1,1.9-0.1l-1.2-1.9C260.5,414.7,259.9,414.7,259.3,414.8z"/>
	<path class="st0" d="M235.6,414.4l0.8,2.1c0.6,0.1,1.3,0.1,1.9,0.1l-0.9-2.1C236.9,414.5,236.2,414.5,235.6,414.4z"/>
	<path class="st0" d="M128,361.2l-0.8,2.1c0.4,0.5,0.9,0.9,1.3,1.4l0.8-2.1C128.9,362.1,128.4,361.6,128,361.2z"/>
	<path class="st0" d="M132.7,366.1l-0.7,2.1c0.5,0.5,0.9,0.9,1.4,1.4l0.7-2.1C133.6,367,133.1,366.5,132.7,366.1z"/>
	<path class="st0" d="M137.5,370.8l-0.6,2.1c0.5,0.4,1,0.9,1.4,1.3l0.6-2.2C138.5,371.6,138,371.2,137.5,370.8z"/>
	<path class="st0" d="M135.1,368.5l-0.7,2.1c0.5,0.4,0.9,0.9,1.4,1.3l0.6-2.2C136,369.3,135.5,368.9,135.1,368.5z"/>
	<path class="st0" d="M130.3,363.6l-0.8,2.1c0.4,0.5,0.9,0.9,1.3,1.4l0.7-2.1C131.2,364.6,130.8,364.1,130.3,363.6z"/>
	<path class="st0" d="M125.8,358.6l-0.8,2.1c0.4,0.5,0.9,1,1.3,1.4l0.8-2.1C126.6,359.6,126.2,359.1,125.8,358.6z"/>
	<path class="st0" d="M140.1,373.1l-0.6,2.2c0.5,0.4,1,0.8,1.4,1.3l0.5-2.2C141,373.9,140.5,373.5,140.1,373.1z"/>
	<path class="st0" d="M123.6,356.1l-0.9,2c0.4,0.5,0.8,1,1.3,1.5l0.9-2.1C124.4,357,124,356.6,123.6,356.1z"/>
	<path class="st0" d="M85.1,242.4l-2.1,0.9c0,0.6,0,1.3-0.1,1.9l2-0.9C85.1,243.6,85.1,243,85.1,242.4z"/>
	<path class="st0" d="M85,249.1l-2,1c0,0.7,0,1.3,0,2l2-1C85,250.4,85,249.8,85,249.1z"/>
	<path class="st0" d="M85.1,255.9l-2,1.1c0,0.6,0.1,1.3,0.1,1.9l1.9-1.1C85.1,257.1,85.1,256.5,85.1,255.9z"/>
	<path class="st0" d="M85,252.5l-2,1c0,0.6,0,1.3,0,1.9l2-1.1C85,253.8,85,253.1,85,252.5z"/>
	<path class="st0" d="M85,245.7l-2,0.9c0,0.6,0,1.3,0,1.9l2-1C85,247,85,246.4,85,245.7z"/>
	<path class="st0" d="M85.3,239l-2.1,0.9c0,0.6-0.1,1.3-0.1,1.9l2.1-0.9C85.3,240.2,85.3,239.6,85.3,239z"/>
	<path class="st0" d="M85.2,259.3l-1.9,1.1c0,0.6,0.1,1.3,0.1,1.9l1.9-1.2C85.3,260.5,85.3,259.9,85.2,259.3z"/>
	<path class="st0" d="M85.6,235.6l-2.1,0.8c-0.1,0.6-0.1,1.3-0.1,1.9l2.1-0.9C85.5,236.9,85.5,236.2,85.6,235.6z"/>
	<path class="st0" d="M138.8,128l-2.1-0.8c-0.5,0.4-0.9,0.9-1.4,1.3l2.1,0.8C137.9,128.9,138.4,128.4,138.8,128z"/>
	<path class="st0" d="M133.9,132.7l-2.1-0.7c-0.5,0.5-0.9,0.9-1.4,1.4l2.1,0.7C133,133.6,133.5,133.1,133.9,132.7z"/>
	<path class="st0" d="M129.2,137.5l-2.1-0.6c-0.4,0.5-0.9,1-1.3,1.4l2.2,0.6C128.4,138.5,128.8,138,129.2,137.5z"/>
	<path class="st0" d="M131.5,135.1l-2.1-0.7c-0.4,0.5-0.9,0.9-1.3,1.4l2.2,0.6C130.7,136,131.1,135.5,131.5,135.1z"/>
	<path class="st0" d="M136.4,130.3l-2.1-0.8c-0.5,0.4-0.9,0.9-1.4,1.3l2.1,0.7C135.4,131.2,135.9,130.8,136.4,130.3z"/>
	<path class="st0" d="M141.4,125.8l-2.1-0.8c-0.5,0.4-1,0.9-1.4,1.3l2.1,0.8C140.4,126.6,140.9,126.2,141.4,125.8z"/>
	<path class="st0" d="M126.9,140.1l-2.2-0.6c-0.4,0.5-0.8,1-1.3,1.4l2.2,0.5C126.1,141,126.5,140.5,126.9,140.1z"/>
	<path class="st0" d="M143.9,123.6l-2-0.9c-0.5,0.4-1,0.8-1.5,1.3l2.1,0.9C143,124.4,143.4,124,143.9,123.6z"/>
</g>
</svg>
