<?xml version="1.0" encoding="utf-8"?>
<!-- Generator: Adobe Illustrator 27.9.0, SVG Export Plug-In . SVG Version: 6.00 Build 0)  -->
<svg version="1.1" id="Layer_1" xmlns="http://www.w3.org/2000/svg" xmlns:xlink="http://www.w3.org/1999/xlink" x="0px" y="0px"
	 viewBox="0 0 80 88" style="enable-background:new 0 0 80 88;" xml:space="preserve">
<style type="text/css">
	.st0{fill:url(#SVGID_1_);}
</style>
<linearGradient id="SVGID_1_" gradientUnits="userSpaceOnUse" x1="40.0014" y1="82.4218" x2="40.0014" y2="4.4245">
	<stop  offset="0" style="stop-color:#6A9DBA"/>
	<stop  offset="1" style="stop-color:#2162A5"/>
</linearGradient>
<path class="st0" d="M43.7,52c0,0,2.6-6.2-3.2-6.6c0,0-4.9-0.5-4.9,5.6c0,0-0.1,3.6,4,5.5c0,0,7.3,3.3,12.3-3.1s1.7-13.7,1.7-13.7
	s-1.5-4-5.9-7.2c-4.5-3.1-9.9-1.5-9.9-1.5s-12.6,3.4-14.9,17s11.7,24.5,11.7,24.5S40.7,78,47,79.3c0,0-4.5,6.6-16.3,8.2
	c0,0-16.4,1.7-20.7-8.2c0,0,5.1,5.9,13.3,3.7c0,0,6.3-2.3,4.1-8.4c0,0-1.8-4.9-7.3-4.2c0,0-6.3,1.3-2.4,7.8c0,0-2.7-0.3-5.1-7.4
	c0,0-0.9-3,0.2-4.4c0,0,5.1,3.2,5.7-2.9c0,0-0.1-3.4-4.6-3.6c0,0-4.9,0.2-5.4,11.2c0,0-3.3-6.2-1-15.7c0,0,2.3,2.2,5.7,0.3
	c0,0,1.6-1,1.5-3.6c-0.1-2.6-4.1-3.2-4.1-3.2S6,48,2.7,56.6c0,0-1.3-8.3,5.4-15.3c0,0,1.5,3.8,5.5,2.5c0,0,3.3-1.8,1.8-4.9
	s-4.6-2.6-4.6-2.6S7,36,1,42.8c0,0,2.4-12.5,13.8-14.9c0,0-1.8,5.4,2.5,5.4s4.2-3.1,4.2-3.1s0.9-4.4-6.3-5.8S4.6,25,4.6,25
	s8.3-10.2,21.1-6.5c0,0-3.8,5.5,2.7,6.4c0,0,4.7-0.1,3.7-5.7s-5.7-7.8-5.7-7.8s-2.5-1.7-8.4-2.2c0,0,17.4-4.4,23.5,4.7
	c0,0-4.9,0.1-4.6,4.4s5.3,2.8,5.3,2.8s5.4-1.2,4.9-10.4c0,0,0.3-3.8-6.8-9.8c0,0,16,4.8,17.7,16.8c0,0-6.4-1.6-6.2,4
	s6.9,3.2,6.9,3.2s6.6-5.7,2.4-16.8c0,0,8.9,6.1,7.8,20.9c0,0-6-3.5-7.1,3c0,0,0.7,4.5,5.5,2.9c4.8-1.6,6.1-11.8,6.1-11.8
	s3.3,9.1-1,18.3c0,0-5.4-2.8-6.5,2c0,0,0,5.2,6.2,2.8c0,0,2.4-1,6.6-9.2c0,0,0.7,19.3-22.2,36.8c0,0-27.6-6.4-27.6-22.1
	c0,0-0.5-14.2,12.2-13.5c0,0,4.8-0.3,6.1,6.7C47.6,44.8,48.6,48.9,43.7,52z"/>
</svg>
