<?xml version="1.0" encoding="utf-8"?>
<!-- Generator: Adobe Illustrator 27.9.0, SVG Export Plug-In . SVG Version: 6.00 Build 0)  -->
<svg version="1.1" id="Layer_1" xmlns="http://www.w3.org/2000/svg" xmlns:xlink="http://www.w3.org/1999/xlink" x="0px" y="0px"
	 viewBox="0 0 58 113" style="enable-background:new 0 0 58 113;" xml:space="preserve">
<style type="text/css">
	.st0{fill:url(#SVGID_1_);}
	.st1{fill:url(#SVGID_00000072993188751090993870000001490709276871320714_);}
</style>
<g>
	<linearGradient id="SVGID_1_" gradientUnits="userSpaceOnUse" x1="11.865" y1="68.9408" x2="11.865" y2="57.1857">
		<stop  offset="0" style="stop-color:#6A9DBA"/>
		<stop  offset="1" style="stop-color:#2364A5"/>
	</linearGradient>
	<circle class="st0" cx="11.9" cy="63.1" r="5.9"/>
	
		<linearGradient id="SVGID_00000171693309378640612850000006308714049404820618_" gradientUnits="userSpaceOnUse" x1="29.3925" y1="100.3285" x2="29.3925" y2="23.5918">
		<stop  offset="0" style="stop-color:#6A9DBA"/>
		<stop  offset="1" style="stop-color:#2364A5"/>
	</linearGradient>
	<path style="fill:url(#SVGID_00000171693309378640612850000006308714049404820618_);" d="M55.1,66.2c0,0,4.1-7.4,2.2-22.1
		c0,0,0,0,0,0c0-0.2,0-0.4-0.1-0.7c0-0.1,0-0.1,0-0.2C57,41.5,56.4,40,56.4,40c0,0,0,0,0,0l0,0c-1.2-2.8-4.6-8.8-11.9-13.2
		c0,0,17.7,17.5-1,32.2c-0.5,0.3-1,0.5-1.4,0.7c-1.9,0.5-6,1.2-7.6-3.1c-0.1-0.3-0.2-0.9-0.2-2c0.3-1.8,1.3-4.9,5.4-0.8
		c0,0,1.3-13.4-11.6-16.9c0,0,4.3,7.6,0.4,12.1c-0.1,0-0.2,0.1-0.3,0.3c-0.4,0.4-0.9,0.8-1.5,1.2c-1.3,0.4-2.8-0.2-3.2-0.3
		c-2-0.9-4.5-3-6.1-8.4c-0.1-0.5-0.5-2.1-0.6-3.8c0.1-0.7,0.2-1.6,0.4-2.5c0,0,0,0,0,0c0.1-0.2,0.1-0.3,0.1-0.4c0.9-2.6,3-4.8,8-1.3
		c0,0,1.9,0.4,1.2-1.1c0,0,0-0.1-0.1-0.2c0,0,0,0,0,0c-0.2-0.3-0.4-0.7-0.7-1.1c0,0-13.2-8.3-18.2-30.5l0.9,49.6
		c0,0,13.8,0.8,14.3,12.6c0,0,2,10.5-7.6,11.3c0,0-4.7-0.2-7.6-3.9c0,0-15.4,22.5,0.9,42.4c0,0-0.3-26.2,12.6-31.2
		c0.6-0.1,2.7-0.6,4-0.2c3.5,1,9.1,4.7-0.3,18c0,0,16.9-7.7,26.6-24.8h-17l1.8-2.6l16.3-0.2l1.5-3H37.1l1.9-2.7H55.1z"/>
</g>
</svg>
