<?xml version="1.0" encoding="utf-8"?>
<!-- Generator: Adobe Illustrator 27.9.0, SVG Export Plug-In . SVG Version: 6.00 Build 0)  -->
<svg version="1.1" id="Layer_1" xmlns="http://www.w3.org/2000/svg" xmlns:xlink="http://www.w3.org/1999/xlink" x="0px" y="0px"
	 viewBox="0 0 77 76" style="enable-background:new 0 0 77 76;" xml:space="preserve">
<style type="text/css">
	.st0{fill:url(#SVGID_1_);}
	.st1{fill:url(#SVGID_00000044168624201066267130000007864251635270925719_);}
	.st2{fill:url(#SVGID_00000075140262800303707640000007561526676155009943_);}
	.st3{fill:url(#SVGID_00000138555103562269159110000015210734810927446432_);}
</style>
<g>
	<linearGradient id="SVGID_1_" gradientUnits="userSpaceOnUse" x1="38.2608" y1="14.1577" x2="38.2608" y2="1.1618">
		<stop  offset="0" style="stop-color:#6A9DBA"/>
		<stop  offset="1" style="stop-color:#2162A5"/>
	</linearGradient>
	<polygon class="st0" points="38.3,10.8 39.9,14.2 44.9,14.2 38.3,1.2 31.6,14.2 36.6,14.2 	"/>
	
		<linearGradient id="SVGID_00000173877929702463509870000008773993474416878523_" gradientUnits="userSpaceOnUse" x1="38.3683" y1="75.5112" x2="38.3683" y2="18.0287">
		<stop  offset="0" style="stop-color:#6A9DBA"/>
		<stop  offset="1" style="stop-color:#2162A5"/>
	</linearGradient>
	<path style="fill:url(#SVGID_00000173877929702463509870000008773993474416878523_);" d="M57.1,54.3c-0.9-3.5-3.7-3.4-5.2-3.5
		c-1.5-0.1-2.1-0.6-2.1-0.6c-1.3-1.1,0-1.5,0-1.5c-0.4-0.3-4.8-7.2-1.1-7.1c3.7,0.1,5.2,7.1,5.2,7.1l5.4-4.6
		c-1.8-1.4-3.3-4.7-3.3-6.7c0.1-2,2.2-2,2.2-2c5.4,0.7,8.5,8,8.5,8V32.2c-6.5,0.2-5.9-4.2-5.9-4.2c0.5-7.3,9.5-1.5,9.5-1.5L66.6,18
		H43.9c1.1,0.4,3.2,1.8,3.2,1.8s3.9,3.5,4.1,5.2c0.1,1.6-0.9,0.6-0.9,0.6c-2-2.6-4-1.8-4-1.8c2.1,1.3,2,2.5,2,2.5
		c-1.1-0.8-2.1-0.3-2.1-0.3c1.4,1.4,1,2.9,1,2.9s-0.5,1.3-1.7,1.1c-1.3-0.1-2.9-1.4-3-2.8c-0.1-1.3-0.6-3.2-0.6-3.2s-0.6-1.8-3.7-2
		c-3.1-0.2-4.4,2-4.4,2c-2.1,0-2.6,1.6-2.6,1.6c-0.6,2.2,0.5,2.9,0.5,2.9c0.5-1.8,1.5-1.4,1.5-1.4c1.8,1.3,0,2.6,0,2.6
		c-2.3,1.1-3.5-0.3-3.5-0.3c-1.2-1.9,0.7-3.4,0.7-3.4c-1.1-0.4-2.1,0.3-2.1,0.3c-0.2-1.1,1.9-2.6,1.9-2.6c-2.2-0.4-3.8,1.6-3.8,1.6
		c-0.7,0.8-0.9,0.3-0.9,0.3c-0.2-4.2,7-7.8,7-7.8H10.1l-3.5,8.5c3.5-2.2,4.6-2.1,4.6-2.1s4.7-1.2,4.8,3.6c0.2,4.8-5.8,4.2-5.8,4.2
		v11.1c5.6-10.7,9.8-7.3,9.8-7.3c2.4,3-2.5,8.1-2.5,8.1l5.4,4.6c0.1-0.8,1.2-3.8,1.2-3.8s3.1-4.8,4.9-3c1.7,1.8-2,6.8-2,6.8
		c0.8,0.1,0.6,0.8,0.6,0.8s-0.4,0.7-1.2,0.9c-0.8,0.2-2.9,0.4-2.9,0.4s-3.7,0.4-3.9,3.7c-0.2,3.3,2.1,3.8,2.1,3.8
		c-0.2-0.9,0.1-2.2,0.1-2.2s0.9-2.3,2.5-2.2C26,54,26,55.6,26,55.6c-0.3,1.2-1,1.6-1,1.6s1.4,0.4,2.3-0.3c0.8-0.7,0.6-2.4,0.6-2.4
		c0.2-0.6,0.4-0.2,0.4-0.2l0.1,0.6l2-1.8L20.2,75.5c6.8-5.3,14.3-2.1,14.3-2.1l3.8-8.6l3.9,8.6c7.9-2.9,14.2,2.1,14.2,2.1L46.3,53.2
		l2,1.8c-0.1-0.3,0-0.6,0-0.6c0.3-0.4,0.4,0,0.4,0s-0.1,1.4,0.4,2.2c0.6,0.8,2.5,0.6,2.5,0.6s-1.5-0.6-1-2c0.5-1.4,1.7-1.2,1.7-1.2
		c3,0.4,2.7,4.3,2.7,4.3C57.5,57.4,57.1,54.3,57.1,54.3z"/>
	
		<linearGradient id="SVGID_00000018225830530472145610000001908674623087792539_" gradientUnits="userSpaceOnUse" x1="8.9699" y1="74.9108" x2="8.9699" y2="48.8623">
		<stop  offset="0" style="stop-color:#6A9DBA"/>
		<stop  offset="1" style="stop-color:#2162A5"/>
	</linearGradient>
	<polygon style="fill:url(#SVGID_00000018225830530472145610000001908674623087792539_);" points="13.8,48.9 0.3,74.9 14.7,74.9 
		16.7,70.5 7.6,70.5 17.6,51 	"/>
	
		<linearGradient id="SVGID_00000070805779410584256010000003726316964001674628_" gradientUnits="userSpaceOnUse" x1="67.3545" y1="74.9108" x2="67.3545" y2="48.8623">
		<stop  offset="0" style="stop-color:#6A9DBA"/>
		<stop  offset="1" style="stop-color:#2162A5"/>
	</linearGradient>
	<polygon style="fill:url(#SVGID_00000070805779410584256010000003726316964001674628_);" points="62.5,48.9 58.7,51 68.7,70.5 
		59.6,70.5 61.6,74.9 76,74.9 	"/>
</g>
</svg>
