<?xml version="1.0" encoding="utf-8"?>
<!-- Generator: Adobe Illustrator 27.9.0, SVG Export Plug-In . SVG Version: 6.00 Build 0)  -->
<svg version="1.1" id="Layer_1" xmlns="http://www.w3.org/2000/svg" xmlns:xlink="http://www.w3.org/1999/xlink" x="0px" y="0px"
	 viewBox="0 0 500 500" style="enable-background:new 0 0 500 500;" xml:space="preserve">
<style type="text/css">
	.st0{fill:#66CEEC;}
</style>
<g>
	<path class="st0" d="M308.7,99.3c3.8,1.5,7.4,3.1,11.1,4.8l3.3,5.7C373.5,136.2,408,189,408,250c0,2.3-0.1,4.6-0.2,6.8l-5.6-9.7
		c-1-54.2-30.3-101.5-73.7-127.7c-3.9-2.4-7.9-4.6-12.1-6.6c-20.1-9.8-42.7-15.2-66.5-15.2c-9.2,0-18.2,0.8-26.9,2.4
		c-3.2,0.6-6.3,1.2-9.5,2c-5.3,1.3-10.5,2.9-15.6,4.7l4.3-7.5c4.9-1.6,10-2.9,15.2-4l2.4-4.1c3-0.6,6.1-1.1,9.1-1.5
		c6.9-0.9,13.8-1.3,20.9-1.3C270.7,88.4,290.5,92.3,308.7,99.3z"/>
	<path class="st0" d="M161.7,356.2c-2.8-2.3-5.5-4.7-8.1-7.3l-1,1.2c2.6,2.5,5.3,5,8.1,7.3c14.8,12.3,32.2,21.7,51.2,27.1
		c3,0.9,6.1,1.6,9.2,2.3c9.3,2,19,3,28.9,3c13.3,0,26.2-1.9,38.5-5.4c2.9-0.8,5.7-1.7,8.5-2.7l-1.8-1c-2.8,1-5.7,1.9-8.6,2.7
		l-2.9-1.7c-10.8,2.7-22,4.2-33.6,4.2c-8.1,0-16-0.7-23.7-2.1l-3.2,1.8c-3.2-0.6-6.3-1.4-9.4-2.2C194.3,378,176.7,368.7,161.7,356.2
		z"/>
</g>
</svg>
