<?xml version="1.0" encoding="utf-8"?>
<!-- Generator: Adobe Illustrator 27.9.0, SVG Export Plug-In . SVG Version: 6.00 Build 0)  -->
<svg version="1.1" id="Layer_1" xmlns="http://www.w3.org/2000/svg" xmlns:xlink="http://www.w3.org/1999/xlink" x="0px" y="0px"
	 viewBox="0 0 500 500" style="enable-background:new 0 0 500 500;" xml:space="preserve">
<style type="text/css">
	.st0{fill:#66CEEC;}
</style>
<path class="st0" d="M113.2,136.2c3-3.6,6.1-7.1,9.4-10.4l-1.5-1.3c-3.3,3.3-6.4,6.8-9.4,10.4c-15.9,19.1-27.9,41.5-34.9,66
	c-1.1,3.9-2.1,7.9-2.9,11.9c-2.5,12-3.9,24.5-3.9,37.3c0,17.2,2.4,33.8,6.9,49.6c1.1,3.7,2.2,7.3,3.5,10.9l1.3-2.3
	c-1.3-3.6-2.4-7.3-3.4-11.1l2.2-3.8C77,279.5,75.1,265,75.1,250c0-10.4,0.9-20.7,2.7-30.6l-2.4-4.1c0.8-4.1,1.8-8.1,2.8-12.1
	C85,178.3,97.1,155.5,113.2,136.2z"/>
</svg>
