<?xml version="1.0" encoding="utf-8"?>
<!-- Generator: Adobe Illustrator 27.9.0, SVG Export Plug-In . SVG Version: 6.00 Build 0)  -->
<svg version="1.1" id="Layer_1" xmlns="http://www.w3.org/2000/svg" xmlns:xlink="http://www.w3.org/1999/xlink" x="0px" y="0px"
	 viewBox="0 0 500 500" style="enable-background:new 0 0 500 500;" xml:space="preserve">
<style type="text/css">
	.st0{fill:#66CEEC;}
</style>
<path class="st0" d="M428,180.7c-1.7-4.4-3.6-8.8-5.7-13.1l-6.7-3.9C384.5,104,322,63.2,250,63.2c-2.7,0-5.4,0.1-8.1,0.2l11.5,6.6
	c64,1.2,119.9,35.8,150.9,87.1c2.8,4.6,5.4,9.4,7.8,14.3c11.5,23.7,18,50.4,18,78.6c0,10.8-1,21.5-2.8,31.8
	c-0.7,3.8-1.5,7.5-2.4,11.2c-1.5,6.3-3.4,12.4-5.6,18.4l8.9-5.1c1.8-5.8,3.4-11.8,4.7-17.9l4.9-2.8c0.7-3.6,1.3-7.2,1.7-10.8
	c1-8.1,1.6-16.4,1.6-24.7C441,225.5,436.4,202.2,428,180.7z"/>
</svg>
