<?xml version="1.0" encoding="utf-8"?>
<!-- Generator: Adobe Illustrator 27.9.0, SVG Export Plug-In . SVG Version: 6.00 Build 0)  -->
<svg version="1.1" id="Layer_1" xmlns="http://www.w3.org/2000/svg" xmlns:xlink="http://www.w3.org/1999/xlink" x="0px" y="0px"
	 viewBox="0 0 500 500" style="enable-background:new 0 0 500 500;" xml:space="preserve">
<style type="text/css">
	.st0{fill:#66CEEC;}
</style>
<g>
	<path class="st0" d="M347.9,367.7c3.1-2.6,6.1-5.3,8.9-8.1l1.2,1.3c-2.9,2.8-5.9,5.5-8.9,8.1c-16.4,13.7-35.7,24-56.8,30
		c-3.4,1-6.8,1.8-10.2,2.5c-10.3,2.2-21.1,3.3-32.1,3.3c-14.8,0-29.1-2.1-42.6-5.9c-3.2-0.9-6.3-1.9-9.4-3l2-1.1
		c3.1,1.1,6.3,2.1,9.5,2.9l3.2-1.9c11.9,3,24.4,4.7,37.3,4.7c9,0,17.8-0.8,26.3-2.3l3.5,2c3.5-0.7,7-1.5,10.4-2.4
		C311.7,391.9,331.3,381.5,347.9,367.7z"/>
	<path class="st0" d="M196.2,111.9c-3.4,1.3-6.8,2.8-10.1,4.4l-3,5.2c-46.3,24.2-78,72.7-78,128.6c0,2.1,0.1,4.2,0.1,6.3l5.1-8.9
		c0.9-49.7,27.8-93,67.6-117.1c3.6-2.2,7.3-4.2,11.1-6c18.4-9,39.1-14,61-14c8.4,0,16.7,0.7,24.7,2.2c2.9,0.5,5.8,1.1,8.7,1.8
		c4.9,1.2,9.6,2.6,14.3,4.3l-4-6.9c-4.5-1.4-9.2-2.6-13.9-3.6l-2.2-3.8c-2.8-0.5-5.6-1-8.4-1.3c-6.3-0.8-12.7-1.2-19.2-1.2
		C231,101.8,212.9,105.4,196.2,111.9z"/>
</g>
</svg>
