<?xml version="1.0" encoding="utf-8"?>
<!-- Generator: Adobe Illustrator 23.0.0, SVG Export Plug-In . SVG Version: 6.00 Build 0)  -->
<svg version="1.1" id="레이어_1" xmlns="http://www.w3.org/2000/svg" xmlns:xlink="http://www.w3.org/1999/xlink" x="0px"
	 y="0px" viewBox="0 0 300 21" style="enable-background:new 0 0 300 21;" xml:space="preserve">
<style type="text/css">
	.st0{fill:#99CCFF;}
</style>
<path class="st0" d="M31.8,0.5H21.1l10,6h10.7L31.8,0.5z M18.9,0.5h-8.4l10,6H29L18.9,0.5z M0.5,0.5C0.5,0.5,0.5,0.5,0.5,0.5
	C0.5,0.5,0.5,0.5,0.5,0.5L0.5,0.5c-0.1,0.1,0,0.1,0,0.1h0l11.8,5.9c0,0,0,0,0,0h6.2l-10-6H0.5C0.5,0.5,0.5,0.5,0.5,0.5z M286.3,7.5
	l-1.5,3c-1.2,0-2.3,0-3.5,0c0.5-1,1-2,1.5-3h0H286.3z M258.3,7.5c-0.5,1-1,2-1.5,3c-1.2,0-2.3,0-3.5,0c0.5-1,1-2,1.5-3h0H258.3z
	 M54,0.5H33.9l10,6h3.2c0.1,0,0.3,0.1,0.3,0.1l6.8,6.8c0,0,0,0,0,0h27.5c0,0,0,0,0,0l3.3-3.3c0.1-0.1,0.2-0.1,0.3-0.1h7
	c0.2,0,0.3,0.1,0.4,0.2v0l6.8,10.2c0,0,0,0,0,0c0,0,0,0,0,0h111.3c0,0,0,0,0,0l6.8-6.8c0.1-0.1,0.2-0.1,0.3-0.1h69.8c0,0,0,0,0,0v0
	L300,7.6c0,0,0,0,0-0.1c0,0,0,0,0,0c0,0,0,0,0,0h-20.6l-1.5,3h-3.5l1.5-3h-3.5c-0.5,1-1,2-1.5,3c-1.2,0-2.3,0-3.5,0c0.5-1,1-2,1.5-3
	h0h2h-5.5l-1.5,3h-3.5l1.5-3h3.5h-50.2c0,0,0,0,0,0c0,0,0,0,0,0l-6.8,6.8c-0.1,0.1-0.2,0.1-0.3,0.1H106.6c-0.2,0-0.3-0.1-0.4-0.2
	L99.3,4c0,0,0,0,0,0c0,0,0,0,0,0H78.6c0,0,0,0,0,0H61.1C61,4,61,4,60.9,3.9L54,0.5C54,0.5,54,0.5,54,0.5z"/>
</svg>
